<?xml version="1.0" encoding="UTF-8"?>
<svg width="512" height="512" viewBox="0 0 512 512" xmlns="http://www.w3.org/2000/svg">
  <defs>
    <radialGradient id="bodyGrad1" cx="42%" cy="38%" r="62%" fx="40%" fy="35%">
      <stop offset="0%" stop-color="rgb(180,195,110)"/>
      <stop offset="55%" stop-color="rgb(155,170,85)"/>
      <stop offset="100%" stop-color="rgb(85,95,45)"/>
    </radialGradient>
    <radialGradient id="shade1" cx="50%" cy="50%" r="50%" fx="40%" fy="35%">
      <stop offset="0%" stop-color="rgba(0,0,0,0.0)"/>
      <stop offset="70%" stop-color="rgba(0,0,0,0.55)"/>
      <stop offset="100%" stop-color="rgba(0,0,0,0.78)"/>
    </radialGradient>
  </defs>
  <!-- Steppe planet (variant 1) - generated for orion-reborn -->
  <circle cx="256" cy="256" r="242.00000000000003" fill="rgba(160,170,100,0.19)" />
  <circle cx="256" cy="256" r="220" fill="url(#bodyGrad1)" />
  <ellipse cx="304.4" cy="295.6" rx="211.2" ry="211.2" fill="url(#shade1)" />
  <ellipse cx="313.73654673169847" cy="193.1223106094552" rx="54.4658670995273" ry="15.586086436974037" fill="rgba(155,170,70,0.27)" transform="rotate(31 313.73654673169847 193.1223106094552)" />
  <ellipse cx="302.4032745703977" cy="247.12255416604998" rx="56.50441660882037" ry="19.753060790536537" fill="rgba(155,170,70,0.27)" transform="rotate(17 302.4032745703977 247.12255416604998)" />
  <ellipse cx="190.59651568291537" cy="379.4398720527068" rx="71.26223576241095" ry="21.451934862230402" fill="rgba(155,170,70,0.27)" transform="rotate(12 190.59651568291537 379.4398720527068)" />
  <ellipse cx="375.92630953407934" cy="347.09269831153586" rx="79.59334495362273" ry="27.46034387241601" fill="rgba(155,170,70,0.27)" transform="rotate(-12 375.92630953407934 347.09269831153586)" />
  <ellipse cx="310.95729801261666" cy="270.60225521142416" rx="68.49952707273566" ry="26.748664663072987" fill="rgba(155,170,70,0.27)" transform="rotate(-28 310.95729801261666 270.60225521142416)" />
  <ellipse cx="214.9367674645351" cy="295.71563337702725" rx="78.03158714408862" ry="31.58236797057351" fill="rgba(155,170,70,0.27)" transform="rotate(0 214.9367674645351 295.71563337702725)" />
  <ellipse cx="272.5874707810313" cy="174.48330189249435" rx="60.725913562472606" ry="23.030873515106734" fill="rgba(155,170,70,0.27)" transform="rotate(-34 272.5874707810313 174.48330189249435)" />
  <circle cx="339.90391819423155" cy="319.183085906397" r="31.021239503116814" fill="rgba(80,60,35,0.25)"/>
  <circle cx="246.63106762683714" cy="382.9580144320292" r="26.86137716925202" fill="rgba(80,60,35,0.25)"/>
  <circle cx="125.9760336424709" cy="313.32400949935874" r="19.25311868833756" fill="rgba(80,60,35,0.25)"/>
  <circle cx="337.02250618957555" cy="107.22309333320675" r="31.00454426593281" fill="rgba(80,60,35,0.25)"/>
  <circle cx="329.6706448230824" cy="175.7192273975533" r="17.712859605708328" fill="rgba(80,60,35,0.25)"/>
  <circle cx="137.90192730214682" cy="141.41025071102695" r="14.148306630740954" fill="rgba(80,60,35,0.25)"/>
  <circle cx="334.6719676906429" cy="299.82475642722574" r="130.28704057397215" fill="rgba(235,230,215,0.32)" />
  <circle cx="349.97452092951846" cy="183.8079831115085" r="112.32281036512879" fill="rgba(235,230,215,0.32)" />
  <circle cx="190.0" cy="185.6" r="57.2" fill="rgba(255,255,255,0.32)" />
  <circle cx="184.0" cy="177.6" r="24.024" fill="rgba(255,255,255,0.18)" />
</svg>
