<?xml version="1.0" encoding="UTF-8"?>
<svg width="512" height="512" viewBox="0 0 512 512" xmlns="http://www.w3.org/2000/svg">
  <defs>
    <radialGradient id="bodyGrad2" cx="42%" cy="38%" r="62%" fx="40%" fy="35%">
      <stop offset="0%" stop-color="rgb(95,140,105)"/>
      <stop offset="55%" stop-color="rgb(70,115,80)"/>
      <stop offset="100%" stop-color="rgb(40,70,50)"/>
    </radialGradient>
    <radialGradient id="shade2" cx="50%" cy="50%" r="50%" fx="40%" fy="35%">
      <stop offset="0%" stop-color="rgba(0,0,0,0.0)"/>
      <stop offset="70%" stop-color="rgba(0,0,0,0.55)"/>
      <stop offset="100%" stop-color="rgba(0,0,0,0.78)"/>
    </radialGradient>
  </defs>
  <!-- Swamp planet (variant 2) - generated for orion-reborn -->
  <circle cx="256" cy="256" r="259.59999999999997" fill="rgba(85,130,95,0.24)" />
  <circle cx="256" cy="256" r="220" fill="url(#bodyGrad2)" />
  <ellipse cx="304.4" cy="295.6" rx="211.2" ry="211.2" fill="url(#shade2)" />
  <ellipse cx="198.91085625459436" cy="345.73458045775556" rx="50.924617531767936" ry="40.34203941854156" fill="rgba(55,96,65,0.37)" />
  <ellipse cx="101.87654363342861" cy="306.2282729696683" rx="55.053429609505415" ry="35.525719125422235" fill="rgba(55,96,65,0.37)" />
  <ellipse cx="227.21044140003352" cy="210.13995122479483" rx="40.3389837036931" ry="27.10022464551987" fill="rgba(55,96,65,0.37)" />
  <ellipse cx="185.72027809352255" cy="170.4205995748173" rx="44.70538421389777" ry="25.209101543775674" fill="rgba(55,96,65,0.37)" />
  <ellipse cx="198.48824808000626" cy="313.9527787582399" rx="31.239271916274156" ry="17.203592020000695" fill="rgba(55,96,65,0.37)" />
  <ellipse cx="246.7621540589244" cy="293.16354097046906" rx="44.1097465243447" ry="29.240092054826523" fill="rgba(55,96,65,0.37)" />
  <ellipse cx="374.187117758919" cy="246.54427096859223" rx="37.26696345175739" ry="28.6535366658317" fill="rgba(55,96,65,0.37)" />
  <ellipse cx="382.33724955852983" cy="333.68355646604545" rx="31.186613330594756" ry="24.526709403613655" fill="rgba(55,96,65,0.37)" />
  <ellipse cx="229.08298776196818" cy="361.2602859532915" rx="45" ry="22" fill="rgba(25,55,40,0.35)" />
  <ellipse cx="272.16690837964643" cy="169.8898264559464" rx="45" ry="22" fill="rgba(25,55,40,0.35)" />
  <ellipse cx="374.01266880049553" cy="284.0827398637374" rx="45" ry="22" fill="rgba(25,55,40,0.35)" />
  <circle cx="261.8841036370435" cy="223.33490445238" r="119.57092068869038" fill="rgba(235,230,215,0.32)" />
  <circle cx="307.7607919511597" cy="281.8843785123737" r="120.29513114192443" fill="rgba(235,230,215,0.32)" />
  <circle cx="190.0" cy="185.6" r="57.2" fill="rgba(255,255,255,0.32)" />
  <circle cx="184.0" cy="177.6" r="24.024" fill="rgba(255,255,255,0.18)" />
</svg>
