<?xml version="1.0" encoding="UTF-8"?>
<svg width="512" height="512" viewBox="0 0 512 512" xmlns="http://www.w3.org/2000/svg">
  <defs>
    <radialGradient id="bodyOcean1" cx="39%" cy="37%" r="58%" fx="38%" fy="36%">
      <stop offset="0%" stop-color="rgb(66,116,186)"/>
      <stop offset="52%" stop-color="rgb(48,98,168)"/>
      <stop offset="100%" stop-color="rgb(26,48,98)"/>
    </radialGradient>
  </defs>
  <!-- Ocean (v1) - improved for orion-reborn -->
  <circle cx="256" cy="256" r="235" fill="url(#bodyOcean1)" />
  <circle cx="256" cy="256" r="235" fill="none" stroke="rgba(0,0,0,0.28)" stroke-width="5.5" />
  <ellipse cx="166.68286157382397" cy="247.02115063369172" rx="23.479174238825827" ry="13.914167967456635" fill="rgba(86,144,68,0.88)" transform="rotate(-19 166.68286157382397 247.02115063369172)" />
  <ellipse cx="200.66527736262475" cy="226.94135327630468" rx="37.14338661984333" ry="23.434049305242702" fill="rgba(86,144,68,0.88)" transform="rotate(26 200.66527736262475 226.94135327630468)" />
  <ellipse cx="202.5669050142603" cy="251.78135464544857" rx="47.539888233848245" ry="32.93007774118653" fill="rgba(86,144,68,0.88)" transform="rotate(23 202.5669050142603 251.78135464544857)" />
  <ellipse cx="227.10551040390922" cy="254.09072383722904" rx="24.00184502561905" ry="20.33682227087188" fill="rgba(86,144,68,0.88)" transform="rotate(20 227.10551040390922 254.09072383722904)" />
  <ellipse cx="228.52150373881003" cy="234.13853830859918" rx="45.098882647169624" ry="35.00487173741893" fill="rgba(86,144,68,0.88)" transform="rotate(11 228.52150373881003 234.13853830859918)" />
  <ellipse cx="176.65904624218314" cy="229.2671073466044" rx="47.27384632642533" ry="30.21465127343354" fill="rgba(86,144,68,0.88)" transform="rotate(33 176.65904624218314 229.2671073466044)" />
  <ellipse cx="277.73621518834256" cy="240.73988452330286" rx="23.805572881961872" ry="20.21933283657793" fill="rgba(86,144,68,0.88)" transform="rotate(-48 277.73621518834256 240.73988452330286)" />
  <ellipse cx="317.98546562723715" cy="198.90063712603276" rx="43.21362276191701" ry="27.33568311100442" fill="rgba(86,144,68,0.88)" transform="rotate(-13 317.98546562723715 198.90063712603276)" />
  <ellipse cx="254.12366411216823" cy="244.5398544586882" rx="34.93242954925263" ry="22.633361283230222" fill="rgba(86,144,68,0.88)" transform="rotate(-17 254.12366411216823 244.5398544586882)" />
  <circle cx="258.1825430934245" cy="218.4460938555047" r="24.981012512131432" fill="none" stroke="rgba(95,135,105,0.16)" stroke-width="2.5" />
  <circle cx="206.99534605388473" cy="240.68612312077548" r="80.85024783439961" fill="rgba(245,250,255,0.16)" />
  <circle cx="212.76724910932938" cy="227.02383684193038" r="76.4376156747439" fill="rgba(245,250,255,0.16)" />
</svg>
