<?xml version="1.0" encoding="UTF-8"?>
<svg width="512" height="512" viewBox="0 0 512 512" xmlns="http://www.w3.org/2000/svg">
  <defs>
    <radialGradient id="bodyGrad1" cx="42%" cy="38%" r="62%" fx="40%" fy="35%">
      <stop offset="0%" stop-color="rgb(95,140,105)"/>
      <stop offset="55%" stop-color="rgb(70,115,80)"/>
      <stop offset="100%" stop-color="rgb(40,70,50)"/>
    </radialGradient>
    <radialGradient id="shade1" cx="50%" cy="50%" r="50%" fx="40%" fy="35%">
      <stop offset="0%" stop-color="rgba(0,0,0,0.0)"/>
      <stop offset="70%" stop-color="rgba(0,0,0,0.55)"/>
      <stop offset="100%" stop-color="rgba(0,0,0,0.78)"/>
    </radialGradient>
  </defs>
  <!-- Swamp planet (variant 1) - generated for orion-reborn -->
  <circle cx="256" cy="256" r="259.59999999999997" fill="rgba(85,130,95,0.24)" />
  <circle cx="256" cy="256" r="220" fill="url(#bodyGrad1)" />
  <ellipse cx="304.4" cy="295.6" rx="211.2" ry="211.2" fill="url(#shade1)" />
  <ellipse cx="112.1277317274064" cy="248.59715235602005" rx="59.0928481565458" ry="34.88599815073101" fill="rgba(55,100,65,0.37)" />
  <ellipse cx="336.75384031235626" cy="173.0398419731548" rx="31.00384409797189" ry="25.058198053921345" fill="rgba(55,100,65,0.37)" />
  <ellipse cx="364.0028965525963" cy="249.04903289455547" rx="61.53661978245786" ry="46.8855617381752" fill="rgba(55,100,65,0.37)" />
  <ellipse cx="109.29109798508637" cy="265.91151720990433" rx="53.32776449194999" ry="34.90155882255359" fill="rgba(55,100,65,0.37)" />
  <ellipse cx="416.8931814861721" cy="269.1332893871496" rx="66.01587680854149" ry="41.74085268345658" fill="rgba(55,100,65,0.37)" />
  <ellipse cx="230.26062900262238" cy="284.05229481830537" rx="42.120425501084796" ry="24.982075998823348" fill="rgba(55,100,65,0.37)" />
  <ellipse cx="421.9724796441991" cy="283.47071801649633" rx="51.01353656697599" ry="42.966306175393505" fill="rgba(55,100,65,0.37)" />
  <ellipse cx="290.1723405166788" cy="369.2526978708991" rx="37.729962712205946" ry="25.05918729119038" fill="rgba(55,100,65,0.37)" />
  <ellipse cx="157.48663936796206" cy="173.41601638232913" rx="45" ry="22" fill="rgba(25,55,40,0.35)" />
  <ellipse cx="336.04868060058965" cy="191.036243226462" rx="45" ry="22" fill="rgba(25,55,40,0.35)" />
  <ellipse cx="159.79810021957584" cy="223.96558721086268" rx="45" ry="22" fill="rgba(25,55,40,0.35)" />
  <circle cx="335.8720593907291" cy="178.19126983248282" r="135.34028481331538" fill="rgba(235,230,215,0.32)" />
  <circle cx="311.6829141009384" cy="289.6793427555308" r="105.26220029393346" fill="rgba(235,230,215,0.32)" />
  <circle cx="190.0" cy="185.6" r="57.2" fill="rgba(255,255,255,0.32)" />
  <circle cx="184.0" cy="177.6" r="24.024" fill="rgba(255,255,255,0.18)" />
</svg>
