<?xml version="1.0" encoding="UTF-8"?>
<svg width="512" height="512" viewBox="0 0 512 512" xmlns="http://www.w3.org/2000/svg">
  <defs>
    <radialGradient id="bodyGaia1" cx="39%" cy="37%" r="58%" fx="38%" fy="36%">
      <stop offset="0%" stop-color="rgb(86,186,116)"/>
      <stop offset="52%" stop-color="rgb(68,168,98)"/>
      <stop offset="100%" stop-color="rgb(35,88,55)"/>
    </radialGradient>
  </defs>
  <!-- Gaia (v1) - improved for orion-reborn -->
  <circle cx="256" cy="256" r="235" fill="url(#bodyGaia1)" />
  <circle cx="256" cy="256" r="235" fill="none" stroke="rgba(0,0,0,0.28)" stroke-width="5.5" />
  <ellipse cx="127.18300486318708" cy="196.9386143670862" rx="55.22541667679617" ry="33.904399874238" fill="rgba(105,205,125,0.90)" transform="rotate(-6 127.18300486318708 196.9386143670862)" />
  <ellipse cx="156.7551118995788" cy="207.57579987911473" rx="48.26591039285141" ry="37.690269089536926" fill="rgba(105,205,125,0.90)" transform="rotate(-30 156.7551118995788 207.57579987911473)" />
  <ellipse cx="205.47945062891586" cy="210.58048631597518" rx="60.35463719225177" ry="36.74325893407472" fill="rgba(105,205,125,0.90)" transform="rotate(-9 205.47945062891586 210.58048631597518)" />
  <ellipse cx="132.0534749745245" cy="242.70583305465914" rx="56.58652863560765" ry="37.44639075229037" fill="rgba(105,205,125,0.90)" transform="rotate(-27 132.0534749745245 242.70583305465914)" />
  <ellipse cx="275.34882689372273" cy="314.65510379370033" rx="56.548673257692265" ry="39.10475377051955" fill="rgba(105,205,125,0.90)" transform="rotate(5 275.34882689372273 314.65510379370033)" />
  <ellipse cx="245.57627129426749" cy="287.08428318056207" rx="58.86914697138148" ry="34.592316324550985" fill="rgba(105,205,125,0.90)" transform="rotate(-3 245.57627129426749 287.08428318056207)" />
  <ellipse cx="269.22942691154446" cy="322.60781554485936" rx="42.29247823682888" ry="23.55248224657788" fill="rgba(105,205,125,0.90)" transform="rotate(-9 269.22942691154446 322.60781554485936)" />
  <ellipse cx="319.33682619001286" cy="325.46599546438654" rx="52.40079950508255" ry="39.902500860940435" fill="rgba(105,205,125,0.90)" transform="rotate(25 319.33682619001286 325.46599546438654)" />
  <ellipse cx="247.9947028637776" cy="336.40615202173916" rx="54.30216254322544" ry="38.61386515181241" fill="rgba(105,205,125,0.90)" transform="rotate(8 247.9947028637776 336.40615202173916)" />
  <ellipse cx="254.50587432966805" cy="370.7644602664279" rx="70.30394401743428" ry="36.110142353656876" fill="rgba(105,205,125,0.90)" transform="rotate(-19 254.50587432966805 370.7644602664279)" />
  <ellipse cx="276.31618932106016" cy="328.2387060835639" rx="60.941430673879736" ry="33.10759934530022" fill="rgba(105,205,125,0.90)" transform="rotate(24 276.31618932106016 328.2387060835639)" />
  <ellipse cx="221.1510951232905" cy="301.49418286635574" rx="57.62156994500247" ry="35.106052665651006" fill="rgba(105,205,125,0.90)" transform="rotate(-32 221.1510951232905 301.49418286635574)" />
  <ellipse cx="256" cy="72.69999999999999" rx="70.5" ry="25.85" fill="rgba(232,242,255,0.37)" />
  <ellipse cx="256" cy="439.3" rx="61.1" ry="21.15" fill="rgba(232,242,255,0.26)" />
  <circle cx="212.59281844823118" cy="223.6032879925196" r="91.808963321777" fill="rgba(245,250,255,0.16)" />
  <circle cx="305.8933543670421" cy="246.10642872726504" r="85.62263010491789" fill="rgba(245,250,255,0.16)" />
  <circle cx="178.45" cy="176.1" r="51.7" fill="rgba(255,255,255,0.28)" />
  <circle cx="174.45" cy="170.1" r="21.15" fill="rgba(255,255,255,0.15)" />
</svg>
